<svg width="35" height="25" viewBox="0 0 35 25" fill="none" xmlns="http://www.w3.org/2000/svg">
<mask id="mask0" mask-type="alpha" maskUnits="userSpaceOnUse" x="0" y="-1" width="35" height="27">
<path d="M14.9704 13.1891C15.2884 12.7688 17.7986 9.81828 17.5636 5.51656C18.253 4.51805 19.9439 3.47104 19.9386 4.73594C19.9337 5.91434 19.4002 10.1021 19.9309 11.8295C19.9699 11.9562 20.0146 12.0698 20.0656 12.1679C24.0791 13.0821 29.4425 10.3737 30.6665 10.473C26.23 12.6681 21.8002 13.282 20.6928 13.4354C25.9926 16.4934 30.1412 15.15 32.2343 13.6419C31.754 15.0629 31.6712 14.7875 31.0886 15.4702C25.912 18.7094 19.8289 15.4067 17.919 14.3116C16.3344 18.2338 10.8215 19.1666 7.23666 17.3319C14.0682 17.1076 14.1949 17.0449 14.8353 15.1502C14.3617 14.9901 16.3897 13.9866 14.3617 14.9901C12.3336 15.9935 3.45389 14.47 3.14693 12.2551C5.66879 14.1631 11.6546 12.0684 14.9704 13.1891Z" fill="white"/>
<path d="M19.9122 11.0604C20.4101 11.1838 19.5872 12.0589 20.0656 12.1679M20.0656 12.1679C24.0791 13.0821 29.4425 10.3737 30.6665 10.473C26.23 12.6681 21.8002 13.282 20.6928 13.4354C25.9926 16.4934 30.1412 15.15 32.2343 13.6419C31.754 15.0629 31.6712 14.7875 31.0886 15.4702C25.0644 19.2398 17.8124 14.1497 17.3387 13.9896C16.8651 13.8295 18.4845 12.1613 18.3244 12.6349C17.7962 17.9454 11.2863 19.4044 7.23666 17.3319C14.0682 17.1076 14.1949 17.0449 14.8353 15.1502C14.3617 14.9901 16.3897 13.9866 14.3617 14.9901C12.3336 15.9935 3.45389 14.47 3.14693 12.2551C5.66879 14.1631 11.6546 12.0684 14.9704 13.1891C15.2884 12.7688 17.7986 9.81828 17.5636 5.51656C18.253 4.51805 19.9439 3.47104 19.9386 4.73594C19.9333 6.00084 19.3191 10.7331 20.0656 12.1679Z" stroke="url(#paint0_linear)"/>
</mask>
<g mask="url(#mask0)">
<rect y="1" width="36" height="22" fill="url(#paint1_linear)" stroke="url(#paint2_linear)"/>
</g>
<defs>
<linearGradient id="paint0_linear" x1="16.6025" y1="3.67566" x2="20.0253" y2="16.9717" gradientUnits="userSpaceOnUse">
<stop stop-color="white"/>
<stop offset="1" stop-color="white"/>
</linearGradient>
<linearGradient id="paint1_linear" x1="14.7857" y1="1.66593" x2="23.6163" y2="18.0593" gradientUnits="userSpaceOnUse">
<stop stop-color="#007C23"/>
<stop offset="1" stop-color="#009E2C"/>
</linearGradient>
<linearGradient id="paint2_linear" x1="12.8571" y1="1.66593" x2="22.9839" y2="16.6555" gradientUnits="userSpaceOnUse">
<stop stop-color="white"/>
<stop offset="1" stop-color="white"/>
</linearGradient>
</defs>
</svg>
